<?xml version="1.0" standalone="no" ?>
<!DOCTYPE svg PUBLIC "-//W3C//DTD SVG 1.1//EN" "http://www.w3.org/Graphics/SVG/1.1/DTD/svg11.dtd">
<svg width="429px" height="372px" xmlns="http://www.w3.org/2000/svg" version="1.1" >
	<line x1="240" y1="197" x2="241" y2="208" stroke-width="1" stroke="rgb(255,0,0)" />
	<line x1="240" y1="197" x2="229" y2="195" stroke-width="1" stroke="rgb(255,0,0)" />
	<line x1="240" y1="197" x2="247" y2="187" stroke-width="1" stroke="rgb(255,0,0)" />
	<line x1="229" y1="195" x2="222" y2="203" stroke-width="1" stroke="rgb(255,0,0)" />
	<line x1="229" y1="195" x2="224" y2="185" stroke-width="1" stroke="rgb(255,0,0)" />
	<line x1="222" y1="203" x2="229" y2="211" stroke-width="1" stroke="rgb(255,0,0)" />
	<line x1="222" y1="203" x2="210" y2="201" stroke-width="1" stroke="rgb(255,0,0)" />
	<line x1="229" y1="211" x2="241" y2="208" stroke-width="1" stroke="rgb(255,0,0)" />
	<line x1="229" y1="211" x2="221" y2="221" stroke-width="1" stroke="rgb(255,0,0)" />
	<line x1="241" y1="208" x2="252" y2="214" stroke-width="1" stroke="rgb(255,0,0)" />
	<line x1="247" y1="187" x2="241" y2="177" stroke-width="1" stroke="rgb(255,0,0)" />
	<line x1="247" y1="187" x2="259" y2="188" stroke-width="1" stroke="rgb(255,0,0)" />
	<line x1="241" y1="177" x2="230" y2="176" stroke-width="1" stroke="rgb(255,0,0)" />
	<line x1="241" y1="177" x2="247" y2="167" stroke-width="1" stroke="rgb(255,0,0)" />
	<line x1="230" y1="176" x2="224" y2="185" stroke-width="1" stroke="rgb(255,0,0)" />
	<line x1="230" y1="176" x2="221" y2="169" stroke-width="1" stroke="rgb(255,0,0)" />
	<line x1="224" y1="185" x2="213" y2="183" stroke-width="1" stroke="rgb(255,0,0)" />
	<line x1="213" y1="183" x2="205" y2="192" stroke-width="1" stroke="rgb(255,0,0)" />
	<line x1="213" y1="183" x2="210" y2="173" stroke-width="1" stroke="rgb(255,0,0)" />
	<line x1="205" y1="192" x2="210" y2="201" stroke-width="1" stroke="rgb(255,0,0)" />
	<line x1="205" y1="192" x2="194" y2="191" stroke-width="1" stroke="rgb(255,0,0)" />
	<line x1="210" y1="201" x2="202" y2="209" stroke-width="1" stroke="rgb(255,0,0)" />
	<line x1="202" y1="209" x2="209" y2="219" stroke-width="1" stroke="rgb(255,0,0)" />
	<line x1="202" y1="209" x2="191" y2="203" stroke-width="1" stroke="rgb(255,0,0)" />
	<line x1="209" y1="219" x2="221" y2="221" stroke-width="1" stroke="rgb(255,0,0)" />
	<line x1="209" y1="219" x2="201" y2="228" stroke-width="1" stroke="rgb(255,0,0)" />
	<line x1="221" y1="221" x2="229" y2="230" stroke-width="1" stroke="rgb(255,0,0)" />
	<line x1="229" y1="230" x2="246" y2="228" stroke-width="1" stroke="rgb(255,0,0)" />
	<line x1="229" y1="230" x2="215" y2="237" stroke-width="1" stroke="rgb(255,0,0)" />
	<line x1="246" y1="228" x2="252" y2="214" stroke-width="1" stroke="rgb(255,0,0)" />
	<line x1="246" y1="228" x2="257" y2="240" stroke-width="1" stroke="rgb(255,0,0)" />
	<line x1="252" y1="214" x2="264" y2="202" stroke-width="1" stroke="rgb(255,0,0)" />
	<line x1="264" y1="202" x2="259" y2="188" stroke-width="1" stroke="rgb(255,0,0)" />
	<line x1="264" y1="202" x2="280" y2="203" stroke-width="1" stroke="rgb(255,0,0)" />
	<line x1="259" y1="188" x2="259" y2="174" stroke-width="1" stroke="rgb(255,0,0)" />
	<line x1="259" y1="174" x2="247" y2="167" stroke-width="1" stroke="rgb(255,0,0)" />
	<line x1="259" y1="174" x2="270" y2="164" stroke-width="1" stroke="rgb(255,0,0)" />
	<line x1="247" y1="167" x2="239" y2="157" stroke-width="1" stroke="rgb(255,0,0)" />
	<line x1="239" y1="157" x2="225" y2="158" stroke-width="1" stroke="rgb(255,0,0)" />
	<line x1="239" y1="157" x2="243" y2="144" stroke-width="1" stroke="rgb(255,0,0)" />
	<line x1="225" y1="158" x2="221" y2="169" stroke-width="1" stroke="rgb(255,0,0)" />
	<line x1="225" y1="158" x2="213" y2="152" stroke-width="1" stroke="rgb(255,0,0)" />
	<line x1="221" y1="169" x2="210" y2="173" stroke-width="1" stroke="rgb(255,0,0)" />
	<line x1="210" y1="173" x2="199" y2="170" stroke-width="1" stroke="rgb(255,0,0)" />
	<line x1="199" y1="170" x2="189" y2="179" stroke-width="1" stroke="rgb(255,0,0)" />
	<line x1="199" y1="170" x2="201" y2="157" stroke-width="1" stroke="rgb(255,0,0)" />
	<line x1="189" y1="179" x2="194" y2="191" stroke-width="1" stroke="rgb(255,0,0)" />
	<line x1="189" y1="179" x2="176" y2="178" stroke-width="1" stroke="rgb(255,0,0)" />
	<line x1="194" y1="191" x2="191" y2="203" stroke-width="1" stroke="rgb(255,0,0)" />
	<line x1="191" y1="203" x2="180" y2="208" stroke-width="1" stroke="rgb(255,0,0)" />
	<line x1="180" y1="208" x2="184" y2="225" stroke-width="1" stroke="rgb(255,0,0)" />
	<line x1="180" y1="208" x2="169" y2="195" stroke-width="1" stroke="rgb(255,0,0)" />
	<line x1="184" y1="225" x2="201" y2="228" stroke-width="1" stroke="rgb(255,0,0)" />
	<line x1="184" y1="225" x2="173" y2="237" stroke-width="1" stroke="rgb(255,0,0)" />
	<line x1="201" y1="228" x2="215" y2="237" stroke-width="1" stroke="rgb(255,0,0)" />
	<line x1="215" y1="237" x2="215" y2="253" stroke-width="1" stroke="rgb(255,0,0)" />
	<line x1="215" y1="253" x2="238" y2="258" stroke-width="1" stroke="rgb(255,0,0)" />
	<line x1="215" y1="253" x2="192" y2="257" stroke-width="1" stroke="rgb(255,0,0)" />
	<line x1="238" y1="258" x2="257" y2="240" stroke-width="1" stroke="rgb(255,0,0)" />
	<line x1="238" y1="258" x2="240" y2="283" stroke-width="1" stroke="rgb(255,0,0)" />
	<line x1="257" y1="240" x2="283" y2="229" stroke-width="1" stroke="rgb(255,0,0)" />
	<line x1="283" y1="229" x2="280" y2="203" stroke-width="1" stroke="rgb(255,0,0)" />
	<line x1="283" y1="229" x2="310" y2="244" stroke-width="1" stroke="rgb(255,0,0)" />
	<line x1="280" y1="203" x2="287" y2="177" stroke-width="1" stroke="rgb(255,0,0)" />
	<line x1="287" y1="177" x2="270" y2="164" stroke-width="1" stroke="rgb(255,0,0)" />
	<line x1="287" y1="177" x2="308" y2="163" stroke-width="1" stroke="rgb(255,0,0)" />
	<line x1="270" y1="164" x2="259" y2="145" stroke-width="1" stroke="rgb(255,0,0)" />
	<line x1="259" y1="145" x2="243" y2="144" stroke-width="1" stroke="rgb(255,0,0)" />
	<line x1="259" y1="145" x2="258" y2="126" stroke-width="1" stroke="rgb(255,0,0)" />
	<line x1="243" y1="144" x2="230" y2="135" stroke-width="1" stroke="rgb(255,0,0)" />
	<line x1="230" y1="135" x2="214" y2="140" stroke-width="1" stroke="rgb(255,0,0)" />
	<line x1="230" y1="135" x2="234" y2="120" stroke-width="1" stroke="rgb(255,0,0)" />
	<line x1="214" y1="140" x2="213" y2="152" stroke-width="1" stroke="rgb(255,0,0)" />
	<line x1="214" y1="140" x2="198" y2="138" stroke-width="1" stroke="rgb(255,0,0)" />
	<line x1="213" y1="152" x2="201" y2="157" stroke-width="1" stroke="rgb(255,0,0)" />
	<line x1="201" y1="157" x2="190" y2="151" stroke-width="1" stroke="rgb(255,0,0)" />
	<line x1="190" y1="151" x2="175" y2="161" stroke-width="1" stroke="rgb(255,0,0)" />
	<line x1="190" y1="151" x2="198" y2="138" stroke-width="1" stroke="rgb(255,0,0)" />
	<line x1="175" y1="161" x2="176" y2="178" stroke-width="1" stroke="rgb(255,0,0)" />
	<line x1="175" y1="161" x2="160" y2="154" stroke-width="1" stroke="rgb(255,0,0)" />
	<line x1="176" y1="178" x2="169" y2="195" stroke-width="1" stroke="rgb(255,0,0)" />
	<line x1="169" y1="195" x2="152" y2="198" stroke-width="1" stroke="rgb(255,0,0)" />
	<line x1="152" y1="198" x2="147" y2="226" stroke-width="1" stroke="rgb(255,0,0)" />
	<line x1="152" y1="198" x2="144" y2="171" stroke-width="1" stroke="rgb(255,0,0)" />
	<line x1="147" y1="226" x2="173" y2="237" stroke-width="1" stroke="rgb(255,0,0)" />
	<line x1="147" y1="226" x2="119" y2="242" stroke-width="1" stroke="rgb(255,0,0)" />
	<line x1="173" y1="237" x2="192" y2="257" stroke-width="1" stroke="rgb(255,0,0)" />
	<line x1="192" y1="257" x2="189" y2="282" stroke-width="1" stroke="rgb(255,0,0)" />
	<line x1="189" y1="282" x2="240" y2="283" stroke-width="1" stroke="rgb(255,0,0)" />
	<line x1="189" y1="282" x2="137" y2="300" stroke-width="1" stroke="rgb(255,0,0)" />
	<line x1="240" y1="283" x2="291" y2="301" stroke-width="1" stroke="rgb(255,0,0)" />
	<line x1="291" y1="301" x2="310" y2="244" stroke-width="1" stroke="rgb(255,0,0)" />
	<line x1="291" y1="301" x2="321" y2="372" stroke-width="1" stroke="rgb(255,0,0)" />
	<line x1="310" y1="244" x2="351" y2="198" stroke-width="1" stroke="rgb(255,0,0)" />
	<line x1="351" y1="198" x2="308" y2="163" stroke-width="1" stroke="rgb(255,0,0)" />
	<line x1="351" y1="198" x2="429" y2="187" stroke-width="1" stroke="rgb(255,0,0)" />
	<line x1="308" y1="163" x2="282" y2="116" stroke-width="1" stroke="rgb(255,0,0)" />
	<line x1="282" y1="116" x2="258" y2="126" stroke-width="1" stroke="rgb(255,0,0)" />
	<line x1="282" y1="116" x2="273" y2="62" stroke-width="1" stroke="rgb(255,0,0)" />
	<line x1="258" y1="126" x2="234" y2="120" stroke-width="1" stroke="rgb(255,0,0)" />
	<line x1="234" y1="120" x2="213" y2="105" stroke-width="1" stroke="rgb(255,0,0)" />
	<line x1="213" y1="105" x2="192" y2="122" stroke-width="1" stroke="rgb(255,0,0)" />
	<line x1="213" y1="105" x2="214" y2="74" stroke-width="1" stroke="rgb(255,0,0)" />
	<line x1="192" y1="122" x2="198" y2="138" stroke-width="1" stroke="rgb(255,0,0)" />
	<line x1="192" y1="122" x2="166" y2="130" stroke-width="1" stroke="rgb(255,0,0)" />
	<line x1="166" y1="130" x2="160" y2="154" stroke-width="1" stroke="rgb(255,0,0)" />
	<line x1="166" y1="130" x2="145" y2="116" stroke-width="1" stroke="rgb(255,0,0)" />
	<line x1="160" y1="154" x2="144" y2="171" stroke-width="1" stroke="rgb(255,0,0)" />
	<line x1="144" y1="171" x2="120" y2="161" stroke-width="1" stroke="rgb(255,0,0)" />
	<line x1="120" y1="161" x2="78" y2="196" stroke-width="1" stroke="rgb(255,0,0)" />
	<line x1="120" y1="161" x2="145" y2="116" stroke-width="1" stroke="rgb(255,0,0)" />
	<line x1="78" y1="196" x2="119" y2="242" stroke-width="1" stroke="rgb(255,0,0)" />
	<line x1="78" y1="196" x2="0" y2="186" stroke-width="1" stroke="rgb(255,0,0)" />
	<line x1="119" y1="242" x2="137" y2="300" stroke-width="1" stroke="rgb(255,0,0)" />
	<line x1="137" y1="300" x2="107" y2="372" stroke-width="1" stroke="rgb(255,0,0)" />
	<line x1="273" y1="62" x2="322" y2="0" stroke-width="1" stroke="rgb(255,0,0)" />
	<line x1="273" y1="62" x2="214" y2="74" stroke-width="1" stroke="rgb(255,0,0)" />
	<line x1="214" y1="74" x2="155" y2="62" stroke-width="1" stroke="rgb(255,0,0)" />
	<line x1="155" y1="62" x2="145" y2="116" stroke-width="1" stroke="rgb(255,0,0)" />
	<line x1="155" y1="62" x2="107" y2="0" stroke-width="1" stroke="rgb(255,0,0)" />
	<line x1="321" y1="372" x2="107" y2="372" stroke-width="1" stroke="rgb(255,0,0)" />
	<line x1="321" y1="372" x2="429" y2="187" stroke-width="1" stroke="rgb(255,0,0)" />
	<line x1="107" y1="372" x2="0" y2="186" stroke-width="1" stroke="rgb(255,0,0)" />
	<line x1="0" y1="186" x2="107" y2="0" stroke-width="1" stroke="rgb(255,0,0)" />
	<line x1="107" y1="0" x2="322" y2="0" stroke-width="1" stroke="rgb(255,0,0)" />
	<line x1="322" y1="0" x2="429" y2="187" stroke-width="1" stroke="rgb(255,0,0)" />
</svg>
