<?xml version="1.0" standalone="no" ?>
<!DOCTYPE svg PUBLIC "-//W3C//DTD SVG 1.1//EN" "http://www.w3.org/Graphics/SVG/1.1/DTD/svg11.dtd">
<svg width="429px" height="372px" xmlns="http://www.w3.org/2000/svg" version="1.1" >
	<line x1="238" y1="189" x2="247" y2="198" stroke-width="1" stroke="rgb(255,0,0)" />
	<line x1="238" y1="189" x2="228" y2="195" stroke-width="1" stroke="rgb(255,0,0)" />
	<line x1="238" y1="189" x2="237" y2="177" stroke-width="1" stroke="rgb(255,0,0)" />
	<line x1="228" y1="195" x2="229" y2="206" stroke-width="1" stroke="rgb(255,0,0)" />
	<line x1="228" y1="195" x2="218" y2="189" stroke-width="1" stroke="rgb(255,0,0)" />
	<line x1="229" y1="206" x2="240" y2="209" stroke-width="1" stroke="rgb(255,0,0)" />
	<line x1="229" y1="206" x2="218" y2="211" stroke-width="1" stroke="rgb(255,0,0)" />
	<line x1="240" y1="209" x2="247" y2="198" stroke-width="1" stroke="rgb(255,0,0)" />
	<line x1="240" y1="209" x2="242" y2="222" stroke-width="1" stroke="rgb(255,0,0)" />
	<line x1="247" y1="198" x2="259" y2="193" stroke-width="1" stroke="rgb(255,0,0)" />
	<line x1="237" y1="177" x2="227" y2="172" stroke-width="1" stroke="rgb(255,0,0)" />
	<line x1="237" y1="177" x2="247" y2="170" stroke-width="1" stroke="rgb(255,0,0)" />
	<line x1="227" y1="172" x2="217" y2="178" stroke-width="1" stroke="rgb(255,0,0)" />
	<line x1="227" y1="172" x2="226" y2="160" stroke-width="1" stroke="rgb(255,0,0)" />
	<line x1="217" y1="178" x2="218" y2="189" stroke-width="1" stroke="rgb(255,0,0)" />
	<line x1="217" y1="178" x2="206" y2="175" stroke-width="1" stroke="rgb(255,0,0)" />
	<line x1="218" y1="189" x2="208" y2="193" stroke-width="1" stroke="rgb(255,0,0)" />
	<line x1="208" y1="193" x2="208" y2="205" stroke-width="1" stroke="rgb(255,0,0)" />
	<line x1="208" y1="193" x2="199" y2="185" stroke-width="1" stroke="rgb(255,0,0)" />
	<line x1="208" y1="205" x2="218" y2="211" stroke-width="1" stroke="rgb(255,0,0)" />
	<line x1="208" y1="205" x2="197" y2="210" stroke-width="1" stroke="rgb(255,0,0)" />
	<line x1="218" y1="211" x2="216" y2="223" stroke-width="1" stroke="rgb(255,0,0)" />
	<line x1="216" y1="223" x2="228" y2="230" stroke-width="1" stroke="rgb(255,0,0)" />
	<line x1="216" y1="223" x2="203" y2="222" stroke-width="1" stroke="rgb(255,0,0)" />
	<line x1="228" y1="230" x2="242" y2="222" stroke-width="1" stroke="rgb(255,0,0)" />
	<line x1="228" y1="230" x2="224" y2="245" stroke-width="1" stroke="rgb(255,0,0)" />
	<line x1="242" y1="222" x2="258" y2="222" stroke-width="1" stroke="rgb(255,0,0)" />
	<line x1="258" y1="222" x2="266" y2="207" stroke-width="1" stroke="rgb(255,0,0)" />
	<line x1="258" y1="222" x2="263" y2="237" stroke-width="1" stroke="rgb(255,0,0)" />
	<line x1="266" y1="207" x2="259" y2="193" stroke-width="1" stroke="rgb(255,0,0)" />
	<line x1="266" y1="207" x2="282" y2="204" stroke-width="1" stroke="rgb(255,0,0)" />
	<line x1="259" y1="193" x2="259" y2="177" stroke-width="1" stroke="rgb(255,0,0)" />
	<line x1="259" y1="177" x2="247" y2="170" stroke-width="1" stroke="rgb(255,0,0)" />
	<line x1="259" y1="177" x2="270" y2="166" stroke-width="1" stroke="rgb(255,0,0)" />
	<line x1="247" y1="170" x2="239" y2="159" stroke-width="1" stroke="rgb(255,0,0)" />
	<line x1="239" y1="159" x2="226" y2="160" stroke-width="1" stroke="rgb(255,0,0)" />
	<line x1="239" y1="159" x2="243" y2="146" stroke-width="1" stroke="rgb(255,0,0)" />
	<line x1="226" y1="160" x2="214" y2="155" stroke-width="1" stroke="rgb(255,0,0)" />
	<line x1="214" y1="155" x2="202" y2="163" stroke-width="1" stroke="rgb(255,0,0)" />
	<line x1="214" y1="155" x2="214" y2="141" stroke-width="1" stroke="rgb(255,0,0)" />
	<line x1="202" y1="163" x2="206" y2="175" stroke-width="1" stroke="rgb(255,0,0)" />
	<line x1="202" y1="163" x2="189" y2="163" stroke-width="1" stroke="rgb(255,0,0)" />
	<line x1="206" y1="175" x2="199" y2="185" stroke-width="1" stroke="rgb(255,0,0)" />
	<line x1="199" y1="185" x2="188" y2="188" stroke-width="1" stroke="rgb(255,0,0)" />
	<line x1="188" y1="188" x2="186" y2="202" stroke-width="1" stroke="rgb(255,0,0)" />
	<line x1="188" y1="188" x2="181" y2="176" stroke-width="1" stroke="rgb(255,0,0)" />
	<line x1="186" y1="202" x2="197" y2="210" stroke-width="1" stroke="rgb(255,0,0)" />
	<line x1="186" y1="202" x2="174" y2="209" stroke-width="1" stroke="rgb(255,0,0)" />
	<line x1="197" y1="210" x2="203" y2="222" stroke-width="1" stroke="rgb(255,0,0)" />
	<line x1="203" y1="222" x2="193" y2="232" stroke-width="1" stroke="rgb(255,0,0)" />
	<line x1="193" y1="232" x2="202" y2="245" stroke-width="1" stroke="rgb(255,0,0)" />
	<line x1="193" y1="232" x2="178" y2="226" stroke-width="1" stroke="rgb(255,0,0)" />
	<line x1="202" y1="245" x2="224" y2="245" stroke-width="1" stroke="rgb(255,0,0)" />
	<line x1="202" y1="245" x2="184" y2="255" stroke-width="1" stroke="rgb(255,0,0)" />
	<line x1="224" y1="245" x2="243" y2="255" stroke-width="1" stroke="rgb(255,0,0)" />
	<line x1="243" y1="255" x2="263" y2="237" stroke-width="1" stroke="rgb(255,0,0)" />
	<line x1="243" y1="255" x2="241" y2="281" stroke-width="1" stroke="rgb(255,0,0)" />
	<line x1="263" y1="237" x2="286" y2="228" stroke-width="1" stroke="rgb(255,0,0)" />
	<line x1="286" y1="228" x2="282" y2="204" stroke-width="1" stroke="rgb(255,0,0)" />
	<line x1="286" y1="228" x2="312" y2="243" stroke-width="1" stroke="rgb(255,0,0)" />
	<line x1="282" y1="204" x2="288" y2="178" stroke-width="1" stroke="rgb(255,0,0)" />
	<line x1="288" y1="178" x2="270" y2="166" stroke-width="1" stroke="rgb(255,0,0)" />
	<line x1="288" y1="178" x2="309" y2="163" stroke-width="1" stroke="rgb(255,0,0)" />
	<line x1="270" y1="166" x2="259" y2="147" stroke-width="1" stroke="rgb(255,0,0)" />
	<line x1="259" y1="147" x2="243" y2="146" stroke-width="1" stroke="rgb(255,0,0)" />
	<line x1="259" y1="147" x2="259" y2="127" stroke-width="1" stroke="rgb(255,0,0)" />
	<line x1="243" y1="146" x2="230" y2="136" stroke-width="1" stroke="rgb(255,0,0)" />
	<line x1="230" y1="136" x2="214" y2="141" stroke-width="1" stroke="rgb(255,0,0)" />
	<line x1="230" y1="136" x2="235" y2="120" stroke-width="1" stroke="rgb(255,0,0)" />
	<line x1="214" y1="141" x2="198" y2="137" stroke-width="1" stroke="rgb(255,0,0)" />
	<line x1="198" y1="137" x2="185" y2="148" stroke-width="1" stroke="rgb(255,0,0)" />
	<line x1="198" y1="137" x2="194" y2="121" stroke-width="1" stroke="rgb(255,0,0)" />
	<line x1="185" y1="148" x2="189" y2="163" stroke-width="1" stroke="rgb(255,0,0)" />
	<line x1="185" y1="148" x2="169" y2="148" stroke-width="1" stroke="rgb(255,0,0)" />
	<line x1="189" y1="163" x2="181" y2="176" stroke-width="1" stroke="rgb(255,0,0)" />
	<line x1="181" y1="176" x2="167" y2="181" stroke-width="1" stroke="rgb(255,0,0)" />
	<line x1="167" y1="181" x2="163" y2="197" stroke-width="1" stroke="rgb(255,0,0)" />
	<line x1="167" y1="181" x2="158" y2="167" stroke-width="1" stroke="rgb(255,0,0)" />
	<line x1="163" y1="197" x2="174" y2="209" stroke-width="1" stroke="rgb(255,0,0)" />
	<line x1="163" y1="197" x2="147" y2="201" stroke-width="1" stroke="rgb(255,0,0)" />
	<line x1="174" y1="209" x2="178" y2="226" stroke-width="1" stroke="rgb(255,0,0)" />
	<line x1="178" y1="226" x2="167" y2="237" stroke-width="1" stroke="rgb(255,0,0)" />
	<line x1="167" y1="237" x2="184" y2="255" stroke-width="1" stroke="rgb(255,0,0)" />
	<line x1="167" y1="237" x2="143" y2="228" stroke-width="1" stroke="rgb(255,0,0)" />
	<line x1="184" y1="255" x2="187" y2="281" stroke-width="1" stroke="rgb(255,0,0)" />
	<line x1="187" y1="281" x2="241" y2="281" stroke-width="1" stroke="rgb(255,0,0)" />
	<line x1="187" y1="281" x2="136" y2="300" stroke-width="1" stroke="rgb(255,0,0)" />
	<line x1="241" y1="281" x2="292" y2="300" stroke-width="1" stroke="rgb(255,0,0)" />
	<line x1="292" y1="300" x2="312" y2="243" stroke-width="1" stroke="rgb(255,0,0)" />
	<line x1="292" y1="300" x2="321" y2="372" stroke-width="1" stroke="rgb(255,0,0)" />
	<line x1="312" y1="243" x2="352" y2="198" stroke-width="1" stroke="rgb(255,0,0)" />
	<line x1="352" y1="198" x2="309" y2="163" stroke-width="1" stroke="rgb(255,0,0)" />
	<line x1="352" y1="198" x2="429" y2="187" stroke-width="1" stroke="rgb(255,0,0)" />
	<line x1="309" y1="163" x2="282" y2="116" stroke-width="1" stroke="rgb(255,0,0)" />
	<line x1="282" y1="116" x2="259" y2="127" stroke-width="1" stroke="rgb(255,0,0)" />
	<line x1="282" y1="116" x2="274" y2="62" stroke-width="1" stroke="rgb(255,0,0)" />
	<line x1="259" y1="127" x2="235" y2="120" stroke-width="1" stroke="rgb(255,0,0)" />
	<line x1="235" y1="120" x2="214" y2="104" stroke-width="1" stroke="rgb(255,0,0)" />
	<line x1="214" y1="104" x2="194" y2="121" stroke-width="1" stroke="rgb(255,0,0)" />
	<line x1="214" y1="104" x2="214" y2="74" stroke-width="1" stroke="rgb(255,0,0)" />
	<line x1="194" y1="121" x2="170" y2="127" stroke-width="1" stroke="rgb(255,0,0)" />
	<line x1="170" y1="127" x2="169" y2="148" stroke-width="1" stroke="rgb(255,0,0)" />
	<line x1="170" y1="127" x2="146" y2="116" stroke-width="1" stroke="rgb(255,0,0)" />
	<line x1="169" y1="148" x2="158" y2="167" stroke-width="1" stroke="rgb(255,0,0)" />
	<line x1="158" y1="167" x2="141" y2="177" stroke-width="1" stroke="rgb(255,0,0)" />
	<line x1="141" y1="177" x2="147" y2="201" stroke-width="1" stroke="rgb(255,0,0)" />
	<line x1="141" y1="177" x2="119" y2="162" stroke-width="1" stroke="rgb(255,0,0)" />
	<line x1="147" y1="201" x2="143" y2="228" stroke-width="1" stroke="rgb(255,0,0)" />
	<line x1="143" y1="228" x2="117" y2="243" stroke-width="1" stroke="rgb(255,0,0)" />
	<line x1="117" y1="243" x2="136" y2="300" stroke-width="1" stroke="rgb(255,0,0)" />
	<line x1="117" y1="243" x2="77" y2="197" stroke-width="1" stroke="rgb(255,0,0)" />
	<line x1="136" y1="300" x2="107" y2="372" stroke-width="1" stroke="rgb(255,0,0)" />
	<line x1="274" y1="62" x2="322" y2="0" stroke-width="1" stroke="rgb(255,0,0)" />
	<line x1="274" y1="62" x2="214" y2="74" stroke-width="1" stroke="rgb(255,0,0)" />
	<line x1="214" y1="74" x2="155" y2="62" stroke-width="1" stroke="rgb(255,0,0)" />
	<line x1="155" y1="62" x2="146" y2="116" stroke-width="1" stroke="rgb(255,0,0)" />
	<line x1="155" y1="62" x2="107" y2="0" stroke-width="1" stroke="rgb(255,0,0)" />
	<line x1="146" y1="116" x2="119" y2="162" stroke-width="1" stroke="rgb(255,0,0)" />
	<line x1="119" y1="162" x2="77" y2="197" stroke-width="1" stroke="rgb(255,0,0)" />
	<line x1="77" y1="197" x2="0" y2="186" stroke-width="1" stroke="rgb(255,0,0)" />
	<line x1="321" y1="372" x2="107" y2="372" stroke-width="1" stroke="rgb(255,0,0)" />
	<line x1="321" y1="372" x2="429" y2="187" stroke-width="1" stroke="rgb(255,0,0)" />
	<line x1="107" y1="372" x2="0" y2="186" stroke-width="1" stroke="rgb(255,0,0)" />
	<line x1="0" y1="186" x2="107" y2="0" stroke-width="1" stroke="rgb(255,0,0)" />
	<line x1="107" y1="0" x2="322" y2="0" stroke-width="1" stroke="rgb(255,0,0)" />
	<line x1="322" y1="0" x2="429" y2="187" stroke-width="1" stroke="rgb(255,0,0)" />
</svg>
